<?xml version="1.0" encoding="utf-8"?>
<svg id="Camada_2" data-name="Camada 2" viewBox="0 0 90.12 85.16" xmlns="http://www.w3.org/2000/svg">
  <defs>
    <style>
      .cls-1 {
        fill: #f0f0f0;
      }
    </style>
  </defs>
  <g id="Camada_1-2" data-name="Camada 1">
    <g>
      <path class="cls-1" d="m3.97,85.16v-5.86h.75v5.17h3.13v.68h-3.88Z" style="fill: rgb(73, 80, 87);"/>
      <path class="cls-1" d="m11.3,85.16v-5.86h4.21v.65h-3.46v1.85h3.15v.62h-3.15v2.06h3.56v.68h-4.31Z" style="fill: rgb(73, 80, 87);"/>
      <path class="cls-1" d="m18.81,85.16l2.19-5.86h.84l2.2,5.86h-.82l-.64-1.79h-2.38l-.64,1.79h-.77Zm2.34-4.35l-.71,1.96h1.95l-.68-1.96c-.12-.33-.27-.83-.27-.83h-.02s-.16.49-.27.83Z" style="fill: rgb(73, 80, 87);"/>
      <path class="cls-1" d="m27.4,85.16v-5.86h2.17c1.8,0,2.65,1.2,2.65,2.95s-.91,2.91-2.7,2.91h-2.11Zm.75-.65h1.34c1.4,0,1.96-.88,1.96-2.26s-.5-2.31-1.9-2.31h-1.39v4.57Z" style="fill: rgb(73, 80, 87);"/>
      <path class="cls-1" d="m39.48,79.96v-.65h4.72v.65h-1.99v5.21h-.75v-5.21h-1.99Z" style="fill: rgb(73, 80, 87);"/>
      <path class="cls-1" d="m47.66,85.16v-5.86h.75v2.49h3.19v-2.49h.75v5.86h-.75v-2.77h-3.19v2.77h-.75Z" style="fill: rgb(73, 80, 87);"/>
      <path class="cls-1" d="m56.18,85.16v-5.86h4.21v.65h-3.46v1.85h3.14v.62h-3.14v2.06h3.56v.68h-4.31Z" style="fill: rgb(73, 80, 87);"/>
      <path class="cls-1" d="m69.22,85.16l-1.54-5.86h.78l.94,3.81c.1.39.22.99.22.99h.02s.14-.62.25-1.01l1.08-3.79h.81l1.04,3.79c.11.39.24,1.01.24,1.01h.02s.14-.63.24-.99l.99-3.81h.76l-1.66,5.86h-.72l-1.09-4.13c-.09-.35-.22-.89-.22-.89h-.02s-.12.55-.22.89l-1.17,4.13h-.75Z" style="fill: rgb(73, 80, 87);"/>
      <path class="cls-1" d="m77.53,85.16l2.19-5.86h.84l2.2,5.86h-.82l-.63-1.79h-2.38l-.64,1.79h-.77Zm2.33-4.35l-.71,1.96h1.95l-.68-1.96c-.12-.33-.27-.83-.27-.83h-.02s-.16.49-.28.83Z" style="fill: rgb(73, 80, 87);"/>
      <path class="cls-1" d="m87.18,85.16v-2.48l-2.16-3.37h.84l1.71,2.78h.02l1.74-2.78h.8l-2.19,3.39v2.47h-.75Z" style="fill: rgb(73, 80, 87);"/>
      <path class="cls-1" d="m8.34,45.52c-1.57,0-2.99-.34-4.27-1-1.25-.69-2.25-1.64-2.98-2.86-.73-1.23-1.1-2.66-1.1-4.27s.35-3.08,1.07-4.3c.73-1.21,1.73-2.15,2.98-2.82,1.25-.69,2.69-1.03,4.29-1.03,1.4,0,2.59.21,3.58.63.98.42,1.78,1,2.38,1.76.61.73,1.04,1.59,1.32,2.57.29.98.44,2.05.44,3.2,0,.92-.15,1.86-.44,2.82-.29.94-.74,1.82-1.35,2.63-.61.8-1.4,1.44-2.38,1.94-.98.48-2.16.72-3.55.72Zm1.32-3.14c1.23,0,2.3-.21,3.2-.63.9-.42,1.59-1,2.07-1.76.48-.75.72-1.62.72-2.6,0-1.07-.25-1.97-.75-2.7-.48-.75-1.17-1.33-2.07-1.73-.88-.4-1.93-.59-3.17-.59-1.74,0-3.09.46-4.05,1.38-.96.92-1.44,2.13-1.44,3.64,0,1,.23,1.88.69,2.63.46.73,1.1,1.31,1.91,1.73.84.42,1.8.63,2.89.63Zm5.99-19.07h4.08v21.86h-3.79c-.06-.48-.12-1.1-.19-1.85-.06-.77-.09-1.5-.09-2.16v-17.85Z" style="fill: rgb(73, 80, 87);"/>
      <path class="cls-1" d="m28.8,23.06v3.58h-4.74v-3.58h4.74Zm-4.42,6.84h4.08v15.59h-4.08v-15.59Z" style="fill: rgb(73, 80, 87);"/>
      <path class="cls-1" d="m40.29,42.79c-1.69,0-3.19-.25-4.48-.75-1.28-.52-2.27-1.28-2.98-2.29-.71-1-1.07-2.22-1.07-3.64s.35-2.62,1.04-3.64,1.67-1.82,2.95-2.38c1.3-.57,2.81-.85,4.55-.85.48,0,.94.03,1.38.09.46.06.91.15,1.35.25l7.87.03v3.07c-1.07.02-2.15-.1-3.26-.38-1.09-.29-2.05-.61-2.89-.94l-.09-.22c.71.34,1.38.75,2.01,1.25.63.48,1.13,1.05,1.5,1.69.4.63.6,1.36.6,2.2,0,1.36-.35,2.53-1.04,3.51-.69.96-1.67,1.7-2.95,2.23-1.25.5-2.75.75-4.49.75Zm5.24,8.81v-.75c0-.96-.31-1.63-.94-2.01-.61-.38-1.44-.57-2.51-.57h-4.86c-.94,0-1.74-.07-2.38-.22-.63-.15-1.13-.35-1.51-.63-.38-.27-.65-.59-.82-.97-.17-.36-.25-.74-.25-1.16,0-.84.27-1.47.81-1.88.54-.44,1.28-.73,2.2-.88.92-.15,1.93-.18,3.04-.09l1.97.35c-1.32.04-2.3.16-2.95.34-.63.17-.94.51-.94,1.04,0,.31.13.57.38.75.25.17.61.25,1.07.25h5.11c1.4,0,2.59.15,3.58.44,1,.31,1.77.82,2.29,1.54.52.73.78,1.73.78,2.98v1.47h-4.08Zm-5.24-11.76c.9,0,1.68-.15,2.35-.44.69-.29,1.23-.71,1.6-1.25.38-.56.56-1.23.56-2.01s-.19-1.47-.56-2.04c-.38-.56-.9-.99-1.57-1.28-.67-.31-1.46-.47-2.39-.47s-1.69.16-2.38.47c-.69.29-1.22.72-1.6,1.28-.38.57-.57,1.24-.57,2.04s.19,1.44.57,2.01c.38.54.9.96,1.57,1.25.69.29,1.5.44,2.42.44Z" style="fill: rgb(73, 80, 87);"/>
      <path class="cls-1" d="m58.23,22.75v3.58h-4.74v-3.58h4.74Zm-4.42,6.84h4.08v15.59h-4.08v-15.59Z" style="fill: rgb(73, 80, 87);"/>
      <path class="cls-1" d="m0,56.18h12.11v3.17H0v-3.17Zm4.01-4.26h4.08v19.85h-4.08v-19.85Z" style="fill: rgb(73, 80, 87);"/>
      <path class="cls-1" d="m28.69,66.6h3.95c-.16,1.07-.62,2.02-1.35,2.85-.71.84-1.68,1.5-2.92,1.98s-2.74.72-4.52.72c-1.99,0-3.74-.31-5.27-.94-1.53-.65-2.72-1.58-3.58-2.79-.86-1.21-1.29-2.68-1.29-4.39s.42-3.18,1.25-4.39c.84-1.23,2-2.17,3.48-2.82,1.51-.65,3.26-.97,5.27-.97s3.75.32,5.11.97c1.36.65,2.36,1.63,3.01,2.95.67,1.3.95,2.96.85,4.99h-14.87c.1.8.39,1.51.88,2.16.5.65,1.17,1.16,2.01,1.54.86.38,1.87.57,3.04.57,1.3,0,2.37-.22,3.23-.66.88-.46,1.44-1.04,1.69-1.76Zm-5.14-7.65c-1.5,0-2.73.34-3.67,1-.94.65-1.55,1.46-1.82,2.42h10.6c-.11-1.04-.61-1.87-1.51-2.48-.88-.63-2.08-.94-3.61-.94Z" style="fill: rgb(73, 80, 87);"/>
      <path class="cls-1" d="m43.33,72.12c-1.55,0-2.96-.34-4.24-1-1.25-.69-2.26-1.64-3.01-2.85-.73-1.23-1.1-2.66-1.1-4.27s.38-3.08,1.13-4.29c.75-1.21,1.77-2.16,3.04-2.82,1.3-.69,2.76-1.04,4.39-1.04,1.8,0,3.24.37,4.33,1.1,1.11.71,1.91,1.68,2.42,2.92.5,1.23.75,2.61.75,4.14,0,.92-.15,1.86-.44,2.82-.29.94-.74,1.82-1.35,2.63-.61.8-1.4,1.44-2.39,1.94-.98.48-2.16.72-3.54.72Zm1.32-3.14c1.23,0,2.3-.21,3.2-.63.9-.42,1.59-1,2.07-1.76.48-.75.72-1.62.72-2.6,0-1.07-.25-1.96-.75-2.7-.48-.75-1.17-1.32-2.07-1.69-.88-.4-1.93-.59-3.17-.59-1.74,0-3.08.46-4.05,1.38-.96.9-1.44,2.1-1.44,3.61,0,1.01.23,1.88.69,2.64.46.73,1.1,1.31,1.91,1.72.84.42,1.8.63,2.89.63Zm5.99-12.8h4.08v15.59h-3.8s-.03-.2-.09-.6c-.04-.42-.08-.94-.13-1.57-.04-.63-.06-1.24-.06-1.85v-11.57Z" style="fill: rgb(73, 80, 87);"/>
      <path class="cls-1" d="m58.4,56.18h4.08v15.59h-4.08v-15.59Zm11.32-.35c.96,0,1.85.13,2.67.38.81.25,1.53.64,2.13,1.16.61.52,1.08,1.19,1.41,2.01.34.79.5,1.74.5,2.85v9.54h-4.08v-8.81c0-1.32-.32-2.28-.97-2.89-.62-.63-1.66-.94-3.1-.94-1.09,0-2.07.21-2.95.63-.88.42-1.59.95-2.13,1.6-.54.63-.86,1.29-.94,1.98l-.03-1.6c.11-.73.35-1.44.72-2.13.38-.69.88-1.32,1.5-1.88.65-.58,1.41-1.05,2.29-1.38.88-.34,1.87-.5,2.98-.5Zm13.58,0c.96,0,1.85.13,2.67.38.82.25,1.53.64,2.13,1.16.61.52,1.08,1.19,1.41,2.01.35.79.53,1.74.53,2.85v9.54h-4.08v-8.81c0-1.32-.32-2.28-.97-2.89-.65-.63-1.7-.94-3.14-.94-1.09,0-2.07.21-2.95.63-.88.42-1.59.95-2.13,1.6-.54.63-.85,1.29-.91,1.98l-.06-1.69c.1-.69.35-1.38.75-2.07.4-.69.92-1.32,1.57-1.88.65-.56,1.4-1.01,2.26-1.35.88-.34,1.85-.5,2.92-.5Z" style="fill: rgb(73, 80, 87);"/>
      <ellipse class="cls-1" cx="3.72" cy="12.46" rx="2.72" ry="2.61" transform="translate(-7.72 6.28) rotate(-45)" style="fill: rgb(73, 80, 87);"/>
      <path class="cls-1" d="m15.03.03c.68-.18,1.3.44,1.11,1.12l-3.79,14.21c-.14.53-.7.78-1.17.63-.27-.09-.4-.36-.48-.63l-2.06-6.7c-.17-.54-.59-.97-1.13-1.13L.81,5.48c-.27-.08-.54-.22-.63-.48-.15-.47.1-1.02.63-1.16L15.03.03Z" style="fill: rgb(73, 80, 87);"/>
    </g>
  </g>
</svg>
